# xmcd
#
# Track frame offsets:
#	150
#	17629
#	31343
#	46350
#	64479
#	84272
#	100980
#	116782
#	130344
#	146320
#	162932
#	179592
#	195968
#	216379
#	231165
#	259127
#
# Disc length: 3461 seconds
#
# Revision: 0
# Processed by: cddbd v1.5.1PL0 Copyright (c) Steve Scherf et al.
# Submitted via: audiograbber 1.83.01
#
DISCID=e30d8310
DTITLE=Various Artist - Best karaoke Country
DYEAR=2003
DGENRE=Karaoke
TTITLE0=Garth Brooks - The Dance
TTITLE1=George Strait - What Do You Say To That?
TTITLE2=Kershaw and Morgan - He Drinks Tequila
TTITLE3=Lee Ann Womack - I Hope You Dance
TTITLE4=Lonestar - I'm Already There
TTITLE5=Montgomery Gentry - She Couldn't Change Me
TTITLE6=Patty Loveless - Last Thing On My Mind
TTITLE7=Rascal Flatts - This Everyday Love
TTITLE8=Rascal Flatts - While You Loved Me
TTITLE9=Sara Evans - Saints and Angels
TTITLE10=Sara Evans - Born To Fly
TTITLE11=Tammy Chrochran - Angels In Waiting
TTITLE12=Tim McGraw - Angry All The Time
TTITLE13=Tim McGraw - All We Ever Find
TTITLE14=Travis Tritt - Love Of A Woman
TTITLE15=data - Data Track
EXTD=
EXTT0=
EXTT1=
EXTT2=
EXTT3=
EXTT4=
EXTT5=
EXTT6=
EXTT7=
EXTT8=
EXTT9=
EXTT10=
EXTT11=
EXTT12=
EXTT13=
EXTT14=
EXTT15=
PLAYORDER=
